<svg width="171" height="50" viewBox="0 0 171 50" fill="none" xmlns="http://www.w3.org/2000/svg">
<path d="M68.059 34.072C66.331 34.072 64.739 34 63.283 33.856L63.163 31.552L64.915 31.072V21.928C64.915 21.512 64.883 21.24 64.819 21.112C64.755 20.968 64.587 20.84 64.315 20.728L63.067 20.032L63.211 18.04C64.875 17.912 66.275 17.816 67.411 17.752C68.547 17.672 69.459 17.632 70.147 17.632C72.355 17.632 74.123 17.888 75.451 18.4C76.795 18.912 77.771 19.72 78.379 20.824C79.003 21.928 79.315 23.392 79.315 25.216C79.315 27.52 78.787 29.384 77.731 30.808C76.787 32.04 75.531 32.896 73.963 33.376C72.411 33.84 70.443 34.072 68.059 34.072ZM71.083 30.64C72.427 30.64 73.491 30.48 74.275 30.16C74.419 29.76 74.547 29.136 74.659 28.288C74.787 27.44 74.851 26.648 74.851 25.912C74.851 24.104 74.475 22.768 73.723 21.904C72.987 21.04 71.859 20.608 70.339 20.608C70.131 20.608 69.939 20.616 69.763 20.632C69.587 20.648 69.419 20.664 69.259 20.68V30.52C69.899 30.6 70.507 30.64 71.083 30.64ZM88.6688 34.336C86.0128 34.336 84.0288 33.664 82.7168 32.32C81.4208 30.976 80.7728 28.936 80.7728 26.2C80.7728 24.424 81.1008 22.888 81.7568 21.592C82.4128 20.28 83.3488 19.272 84.5648 18.568C85.7808 17.864 87.2288 17.512 88.9088 17.512C94.2528 17.512 96.9248 20.24 96.9248 25.696C96.9248 27.488 96.5968 29.032 95.9408 30.328C95.2848 31.624 94.3328 32.616 93.0848 33.304C91.8528 33.992 90.3808 34.336 88.6688 34.336ZM89.1728 31.024C90.0848 31.024 90.9568 30.792 91.7888 30.328C91.9648 29.832 92.1008 29.216 92.1968 28.48C92.2928 27.728 92.3408 26.992 92.3408 26.272C92.3408 24.496 92.0048 23.152 91.3328 22.24C90.6768 21.328 89.7088 20.872 88.4288 20.872C87.5168 20.872 86.6368 21.04 85.7888 21.376C85.6128 21.68 85.4768 22.184 85.3808 22.888C85.2848 23.576 85.2368 24.368 85.2368 25.264C85.2368 27.12 85.5728 28.544 86.2448 29.536C86.9168 30.528 87.8928 31.024 89.1728 31.024ZM101.936 23.776L102.344 30.064C102.36 30.432 102.4 30.672 102.464 30.784C102.528 30.896 102.672 31.016 102.896 31.144L104.144 31.984L104.048 34H97.8079L97.6879 31.384L98.9839 31.072L99.0799 21.616C99.0799 21.312 99.0559 21.104 99.0079 20.992C98.9599 20.88 98.8479 20.752 98.6719 20.608L97.7839 19.936L97.9519 17.824H102.92L110.168 27.112L109.832 21.76C109.816 21.376 109.776 21.128 109.712 21.016C109.648 20.904 109.504 20.784 109.28 20.656L108.032 19.84L108.104 17.824H114.296L114.392 20.272L113.168 20.8L113.072 33.784L110.312 34.696L101.936 23.776ZM115.257 31.552L117.009 31.072V21.88C117.009 21.464 116.977 21.192 116.913 21.064C116.849 20.92 116.681 20.792 116.409 20.68L115.209 19.984L115.281 17.824H128.313C128.425 19.504 128.481 21.144 128.481 22.744L126.705 22.864L125.001 20.752L121.377 20.656V24.568L126.489 24.136V27.832L121.377 27.28V31.144L125.361 31.072L127.209 28.96L128.985 29.08C128.921 30.76 128.801 32.4 128.625 34H115.377L115.257 31.552ZM130.09 31.552L131.842 31.072V21.928C131.842 21.512 131.81 21.24 131.746 21.112C131.682 20.968 131.514 20.84 131.242 20.728L129.994 20.032L130.138 18.064C132.538 17.712 134.85 17.536 137.074 17.536C138.802 17.536 140.194 17.712 141.25 18.064C142.306 18.4 143.074 18.936 143.554 19.672C144.05 20.392 144.298 21.352 144.298 22.552C144.298 23.544 144.042 24.416 143.53 25.168C143.018 25.904 142.29 26.472 141.346 26.872L145.186 33.064L145.162 34H140.794L137.242 27.592L136.186 27.568V30.256C136.186 30.64 136.21 30.888 136.258 31C136.322 31.096 136.466 31.208 136.69 31.336L137.722 31.936L137.626 34H130.21L130.09 31.552ZM137.722 24.88C138.57 24.88 139.194 24.8 139.594 24.64C139.754 24.064 139.834 23.376 139.834 22.576C139.834 21.776 139.658 21.208 139.306 20.872C138.97 20.536 138.402 20.368 137.602 20.368C137.154 20.368 136.698 20.392 136.234 20.44V24.736C136.65 24.832 137.146 24.88 137.722 24.88ZM151.038 34.288C149.278 34.288 147.494 34.016 145.686 33.472C145.766 31.888 145.894 30.416 146.07 29.056L147.918 28.696L149.118 30.736C150.078 31.072 150.926 31.24 151.662 31.24C151.918 31.24 152.462 31.168 153.294 31.024C153.326 30.704 153.342 30.488 153.342 30.376C153.342 29.992 153.278 29.704 153.15 29.512C153.022 29.304 152.742 29.08 152.31 28.84C151.878 28.584 151.102 28.208 149.982 27.712C148.606 27.04 147.614 26.32 147.006 25.552C146.398 24.768 146.094 23.848 146.094 22.792C146.094 21.144 146.654 19.856 147.774 18.928C148.894 18 150.43 17.536 152.382 17.536C153.326 17.536 154.262 17.632 155.19 17.824C156.134 18 156.958 18.248 157.662 18.568C157.63 19.464 157.558 20.576 157.446 21.904L157.374 22.936L155.622 23.2L153.798 20.872C153.222 20.696 152.502 20.608 151.638 20.608C151.094 20.608 150.686 20.656 150.414 20.752C150.334 21.072 150.294 21.32 150.294 21.496C150.294 21.848 150.382 22.16 150.558 22.432C150.734 22.688 151.046 22.96 151.494 23.248C151.942 23.52 152.606 23.864 153.486 24.28C154.766 24.888 155.734 25.424 156.39 25.888C157.046 26.352 157.502 26.84 157.758 27.352C158.03 27.848 158.166 28.456 158.166 29.176C158.166 30.76 157.534 32.008 156.27 32.92C155.006 33.832 153.262 34.288 151.038 34.288Z" fill="black"/>
<path d="M25.5152 18.1168C23.2901 16.0246 23.3041 12.4022 26.0759 11.1195C27.8889 10.2805 29.8314 9.74667 31.8023 9.56356C35.6213 9.20873 39.269 10.1965 42.0237 12.3313C44.7784 14.4662 46.4395 17.5927 46.6783 21.0924C46.9171 24.592 45.7163 28.2099 43.3134 31.2303C40.9105 34.2506 37.4805 36.4535 33.702 37.403C29.9236 38.3526 26.0718 37.9796 22.9088 36.358C19.7458 34.7364 17.5018 31.9842 16.6209 28.6459C16.1222 26.756 16.0809 24.7562 16.4774 22.7787C17.0143 20.1007 20.0445 19.095 22.577 20.1179L26.0057 21.5027C27.2391 22.0009 27.6351 23.5793 27.9745 24.8655C28.1814 25.6495 28.7083 26.2958 29.4511 26.6766C30.1939 27.0574 31.0984 27.145 31.9858 26.922C32.8731 26.699 33.6785 26.1817 34.2428 25.4724C34.8071 24.7631 35.0891 23.9135 35.033 23.0917C34.9769 22.2699 34.5869 21.5356 33.94 21.0343C33.2931 20.533 32.4365 20.301 31.5396 20.3843C30.0106 20.5264 28.229 20.6683 27.1103 19.6165L25.5152 18.1168Z" fill="#D64739"/>
<path d="M28.7898 30.4703C31.8245 32.4957 32.516 36.8227 29.1501 38.231C28.0093 38.7084 26.7702 39.0435 25.4588 39.2216C21.7032 39.7316 17.6183 38.9184 13.9868 36.938C10.3553 34.9575 7.43248 31.9489 5.77847 28.4888C4.12446 25.0287 3.85556 21.3603 5.02328 18.1865C6.191 15.0128 8.71323 12.5569 12.1067 11.2894C15.5001 10.0219 19.5262 10.032 23.4133 11.3177C27.3005 12.6034 30.7754 15.0743 33.1723 18.257C33.9698 19.3159 34.6293 20.4288 35.1427 21.5699C36.7022 25.0363 33.1039 27.8021 29.4007 26.9452L26.5493 26.2854C25.129 25.9567 24.2035 24.5025 23.3266 23.338C22.7746 22.6051 21.9744 22.0362 21.0793 21.7401C20.1842 21.444 19.2572 21.4417 18.4757 21.7336C17.6943 22.0255 17.1135 22.591 16.8446 23.3218C16.5757 24.0526 16.6377 24.8974 17.0185 25.6941C17.3994 26.4909 18.0724 27.1837 18.9087 27.6397C19.7449 28.0958 20.6855 28.283 21.5503 28.1656C22.8867 27.9841 24.4854 27.5974 25.6071 28.3461L28.7898 30.4703Z" fill="#EEC3B1"/>
<path d="M9.03514 25.8736C6.63155 26.0888 4.28422 24.5705 4.3086 22.1575C4.31506 21.5188 4.36989 20.8875 4.47341 20.2679C4.79464 18.3454 5.57759 16.5785 6.77181 15.0809C7.96604 13.5833 9.54507 12.3883 11.4072 11.5728C13.2694 10.7573 15.3733 10.3395 17.5836 10.3461C19.7939 10.3528 22.0616 10.7838 24.2405 11.6114C26.4193 12.4391 28.4612 13.645 30.2345 15.1515C32.0079 16.658 33.4733 18.4317 34.5366 20.3584C34.7738 20.7883 34.9899 21.2237 35.1843 21.6632C36.3075 24.2023 34.3769 26.7778 31.6634 27.3654L31.5558 27.3887C30.6899 27.5763 29.79 27.5353 28.9447 27.27L28.4914 27.1277C26.7871 26.5927 25.9396 24.9295 25.0765 23.3655C24.7238 22.7265 24.2377 22.1381 23.6495 21.6384C23.0613 21.1387 22.384 20.7387 21.6613 20.4642C20.9385 20.1897 20.1864 20.0467 19.4532 20.0445C18.7201 20.0423 18.0222 20.1809 17.4045 20.4514C16.7868 20.7219 16.2631 21.1183 15.8669 21.615C15.4708 22.1117 15.2111 22.6978 15.1046 23.3355C14.934 24.3563 14.2824 25.404 13.2516 25.4962L9.03514 25.8736Z" fill="#EEC3B1"/>
<path d="M38.4436 28.7479C40.7912 30.4696 41.132 33.9066 38.639 35.41C36.9451 36.4315 35.0914 37.1898 33.1644 37.6343C29.4676 38.487 25.7411 38.1292 22.6487 36.6246C19.5563 35.1201 17.2989 32.5666 16.2787 29.4189C15.7551 27.8033 15.5748 26.0851 15.7311 24.3495C15.9977 21.3892 19.1607 19.9574 22.0443 20.6778L22.1504 20.6948C24.1901 21.0226 26.134 23.3908 26.7709 25.356C27.0825 26.3173 27.7718 27.097 28.7162 27.5565C29.6605 28.0159 30.7985 28.1252 31.9274 27.8648C33.852 27.4209 36.09 27.0217 37.6827 28.1898L38.4436 28.7479Z" fill="#D64739"/>
</svg>
