<svg width="42" height="122" viewBox="0 0 42 122" fill="none" xmlns="http://www.w3.org/2000/svg">
<path d="M13.5371 36.8692C13.5371 32.2281 10.8252 4.11697 19.0767 3.63159C23.1195 3.39377 32.6525 1.75676 32.9257 6.40139C33.0489 8.49568 35.6955 8.88868 35.6955 11.2485C35.6955 14.0544 37.0804 16.5399 37.0804 19.5579C37.0804 44.064 38.4653 69.4074 38.4653 94.3426C38.4653 100.611 38.6422 103.414 34.9261 108.192C32.7481 110.992 24.6714 118.578 21.154 118.578C13.2391 118.578 7.99747 104.208 7.99747 97.8048C7.99747 78.8272 3.84277 22.0463 3.84277 41.0239" stroke="#949494" stroke-width="6" stroke-linecap="round"/>
<path d="M6.62192 48.4068C6.75909 46.4452 6.86314 34.56 9.73196 34.5651C12.5202 34.5701 15.4969 34.7783 18.2588 35.1614C21.2776 35.5801 26.9592 43.3816 27.3904 46.9646C28.1405 53.1989 28.6422 60.264 28.1804 66.868C27.6804 74.0177 28.597 81.3333 28.0765 88.7765" stroke="#A2A2A2" stroke-width="6" stroke-linecap="round"/>
</svg>
