<svg width="52" height="52" viewBox="0 0 52 52" fill="none" xmlns="http://www.w3.org/2000/svg">
<path d="M42.25 13C39.4117 13 37.115 15.1883 36.8767 17.9833C32.8034 16.9 30.7234 14.0833 26 14.0833C21.255 14.0833 19.1967 16.9 15.1234 17.9833C14.885 15.21 12.5884 13 9.75004 13C6.76004 13 4.33337 15.4267 4.33337 18.4167V19.5C4.33337 32.5 12.1334 36.4217 18.46 36.79C20.6484 38.1767 23.2267 39 26 39C28.7734 39 31.3517 38.1767 33.54 36.79C39.8667 36.4217 47.6667 32.5 47.6667 19.5V18.4167C47.6667 15.4267 45.24 13 42.25 13ZM7.58337 19.5V18.4167C7.58337 17.225 8.55837 16.25 9.75004 16.25C10.9417 16.25 11.9167 17.225 11.9167 18.4167V24.9167C11.9167 27.69 12.74 30.2683 14.105 32.4567C10.8117 30.9183 7.58337 27.4083 7.58337 19.5ZM15.1667 24.9167V21.3417C17.5934 20.8433 19.3917 19.8467 20.93 19.0017C22.7067 18.0483 23.985 17.3333 26 17.3333C28.015 17.3333 29.2934 18.0483 31.07 19.0233C32.6084 19.8683 34.4067 20.8433 36.8334 21.3633V24.9383C36.8334 30.9183 31.98 35.7717 26 35.7717C20.02 35.7717 15.1667 30.8967 15.1667 24.9167ZM44.4167 19.5C44.4167 27.4083 41.1884 30.9183 37.895 32.4567C39.2817 30.2683 40.0834 27.69 40.0834 24.9167V18.4167C40.0834 17.225 41.0584 16.25 42.25 16.25C43.4417 16.25 44.4167 17.225 44.4167 18.4167V19.5ZM23.1617 22.7067C22.2084 23.27 21.0817 23.92 19.5 24.3533V22.1C20.54 21.7317 21.32 21.2767 22.0567 20.8433C23.2267 20.15 24.3317 19.5 26 19.5C27.6684 19.5 28.7517 20.15 29.9 20.8433C30.6367 21.2767 31.4384 21.7533 32.5 22.1217V24.375C30.875 23.92 29.77 23.27 28.795 22.685C27.7984 22.1 27.0617 21.6667 26 21.6667C24.9384 21.6667 24.18 22.1 23.1617 22.7067Z" fill="#323232"/>
</svg>
