<svg width="33" height="33" viewBox="0 0 33 33" fill="none" xmlns="http://www.w3.org/2000/svg">
<circle cx="16.5" cy="16.5" r="15.5" fill="#FCDA62" stroke="black" stroke-width="2"/>
<path d="M17.2656 8.78125V11.1641H16.0938V8.78125H17.2656ZM17.125 21.5391V23.625H15.9609V21.5391H17.125ZM18.6875 19.0703C18.6875 18.7578 18.6172 18.4766 18.4766 18.2266C18.3359 17.9766 18.1042 17.7474 17.7812 17.5391C17.4583 17.3307 17.026 17.138 16.4844 16.9609C15.8281 16.7578 15.2604 16.5104 14.7812 16.2188C14.3073 15.9271 13.9401 15.5651 13.6797 15.1328C13.4245 14.7005 13.2969 14.1771 13.2969 13.5625C13.2969 12.9219 13.4349 12.3698 13.7109 11.9062C13.987 11.4427 14.3776 11.0859 14.8828 10.8359C15.388 10.5859 15.9818 10.4609 16.6641 10.4609C17.1953 10.4609 17.6693 10.5417 18.0859 10.7031C18.5026 10.8594 18.8542 11.0938 19.1406 11.4062C19.4323 11.7188 19.6536 12.1016 19.8047 12.5547C19.9609 13.0078 20.0391 13.5312 20.0391 14.125H18.6016C18.6016 13.776 18.5599 13.4557 18.4766 13.1641C18.3932 12.8724 18.2682 12.6198 18.1016 12.4062C17.9349 12.1875 17.7318 12.0208 17.4922 11.9062C17.2526 11.7865 16.9766 11.7266 16.6641 11.7266C16.2266 11.7266 15.8646 11.8021 15.5781 11.9531C15.2969 12.1042 15.0885 12.3177 14.9531 12.5938C14.8177 12.8646 14.75 13.1797 14.75 13.5391C14.75 13.8724 14.8177 14.1641 14.9531 14.4141C15.0885 14.6641 15.3177 14.8906 15.6406 15.0938C15.9688 15.2917 16.4193 15.487 16.9922 15.6797C17.6641 15.8932 18.2344 16.1458 18.7031 16.4375C19.1719 16.724 19.5286 17.0781 19.7734 17.5C20.0182 17.9167 20.1406 18.4349 20.1406 19.0547C20.1406 19.7266 19.9896 20.2943 19.6875 20.7578C19.3854 21.2161 18.9609 21.5651 18.4141 21.8047C17.8672 22.0443 17.2266 22.1641 16.4922 22.1641C16.0495 22.1641 15.612 22.1042 15.1797 21.9844C14.7474 21.8646 14.3568 21.6693 14.0078 21.3984C13.6589 21.1224 13.3802 20.7604 13.1719 20.3125C12.9635 19.8594 12.8594 19.3047 12.8594 18.6484H14.3125C14.3125 19.0911 14.375 19.4583 14.5 19.75C14.6302 20.0365 14.8021 20.2656 15.0156 20.4375C15.2292 20.6042 15.4635 20.724 15.7188 20.7969C15.9792 20.8646 16.237 20.8984 16.4922 20.8984C16.9609 20.8984 17.3568 20.8255 17.6797 20.6797C18.0078 20.5286 18.2578 20.3151 18.4297 20.0391C18.6016 19.763 18.6875 19.4401 18.6875 19.0703Z" fill="black"/>
</svg>
