<svg width="38" height="38" viewBox="0 0 38 38" fill="none" xmlns="http://www.w3.org/2000/svg">
<path d="M10.2917 3.16699C12.0333 3.16699 13.4583 4.59199 13.4583 6.33366C13.4583 8.07533 12.0333 9.50033 10.2917 9.50033C8.55 9.50033 7.125 8.07533 7.125 6.33366C7.125 4.59199 8.55 3.16699 10.2917 3.16699ZM24.5417 15.042C24.5417 16.3562 25.6025 17.417 26.9167 17.417C28.2308 17.417 29.2917 16.3562 29.2917 15.042C29.2917 13.7278 28.2308 12.667 26.9167 12.667C25.6025 12.667 24.5417 13.7278 24.5417 15.042ZM29.2917 19.0003H24.795C23.8767 19.0162 22.99 19.507 22.4992 20.362L21.0425 22.452L15.39 12.667C14.8042 11.6695 13.7592 11.0995 12.6825 11.0837H7.91667C6.175 11.0837 4.75 12.5087 4.75 14.2503V23.7503H7.125V34.8337H15.0417V18.3828L19.0475 25.3337H22.5308L23.75 23.592V34.8337H30.0833V26.917H31.6667V21.3753C31.6667 20.077 30.6058 19.0003 29.2917 19.0003Z" fill="#323232"/>
</svg>
