<?xml version="1.0" standalone="no"?>
<!DOCTYPE svg PUBLIC "-//W3C//DTD SVG 20010904//EN"
 "http://www.w3.org/TR/2001/REC-SVG-20010904/DTD/svg10.dtd">
<svg version="1.0" xmlns="http://www.w3.org/2000/svg"
 width="32.000000pt" height="32.000000pt" viewBox="0 0 32.000000 32.000000"
 preserveAspectRatio="xMidYMid meet">

<g transform="translate(0.000000,32.000000) scale(0.100000,-0.100000)"
fill="#000000" stroke="none">
<path d="M122 258 c-15 -19 -17 -59 -3 -92 12 -31 1 -56 -25 -56 -13 0 -44
-37 -44 -52 0 -5 4 -8 10 -8 5 0 9 3 9 8 -4 21 3 31 16 26 8 -4 22 -1 30 6 8
6 18 9 24 6 5 -3 12 0 15 6 5 11 7 11 12 0 3 -6 10 -9 15 -6 6 3 16 0 24 -6 8
-7 22 -10 30 -6 13 5 20 -5 16 -26 0 -5 4 -8 9 -8 25 0 -3 44 -40 64 -19 9
-24 19 -23 41 1 15 6 31 11 34 13 8 -9 73 -27 79 -8 3 -11 0 -7 -6 3 -6 2 -13
-4 -17 -6 -4 -8 -11 -5 -16 4 -5 -6 -9 -22 -9 l-27 0 22 16 c12 8 22 19 22 25
0 13 -26 11 -38 -3z m23 -8 c-3 -5 -11 -10 -16 -10 -6 0 -7 5 -4 10 3 6 11 10
16 10 6 0 7 -4 4 -10z m55 -44 c0 -3 -4 -16 -10 -30 -13 -35 -47 -35 -60 0
-14 35 -15 34 30 34 22 0 40 -2 40 -4z m-10 -81 c10 -12 9 -15 -4 -15 -10 0
-14 5 -11 10 3 6 -3 10 -15 10 -12 0 -18 -4 -15 -10 3 -5 -1 -10 -11 -10 -13
0 -14 3 -4 15 7 8 20 15 30 15 10 0 23 -7 30 -15z"/>
</g>
</svg>
