<svg width="100%" height="550px" viewBox="0 0 551 592" fill="none" xmlns="http://www.w3.org/2000/svg">
<path fill-rule="evenodd" clip-rule="evenodd" d="M539.191 577.169L548.497 588.868L550.497 591.382V588.169V579.169V577.169H550.999V575.169V2V0H548.999H2H0V2V575.169V577.169H1.42522L16.5316 592L31.6379 577.169H33.4832L48.5895 592L63.6959 577.169H64.5393L79.6457 592L94.752 577.169H96.5973L111.704 592L126.81 577.169H127.653L142.76 592L157.866 577.169H159.711L174.818 592L189.924 577.169H190.768L205.874 592L220.98 577.169H222.826L237.932 592L253.038 577.169H253.882L268.988 592L268.988 592L284.094 577.169H285.94L301.046 592L301.046 592L316.152 577.169H316.996L332.102 592L332.103 592L347.208 577.169H349.054L364.16 592L364.161 592L379.266 577.169H381.112L396.218 592L396.218 592L411.324 577.169H413.17L428.276 592L428.276 592L443.382 577.169H444.226L459.332 592L459.333 592L474.438 577.169H476.284L491.39 592L491.391 592L506.496 577.169H507.34L522.445 591.999L522.446 592L537.553 577.169H539.191ZM522.446 589.197L536.151 575.742L536.735 575.169H537.553H539.191H540.156L540.756 575.924L548.497 585.655V577.169V575.169H548.999V2H2V575.169H2.24289L2.82636 575.742L16.5316 589.197L30.2368 575.742L30.8202 575.169H31.6379H33.4832H34.3008L34.8843 575.742L48.5895 589.197L62.2947 575.742L62.8782 575.169H63.6959H64.5393H65.357L65.9405 575.742L79.6457 589.197L93.3509 575.742L93.9343 575.169H94.752H96.5973H97.415L97.9984 575.742L111.704 589.197L125.409 575.742L125.992 575.169H126.81H127.653H128.471L129.055 575.742L142.76 589.197L156.465 575.742L157.048 575.169H157.866H159.711H160.529L161.113 575.742L174.818 589.197L188.523 575.742L189.106 575.169H189.924H190.768H191.585L192.169 575.742L205.874 589.197L219.579 575.742L220.163 575.169H220.98H222.826H223.643L224.227 575.742L237.932 589.197L251.637 575.742L252.221 575.169H253.038H253.882H254.699L255.283 575.742L268.988 589.197L282.693 575.742L283.277 575.169H284.094H285.94H286.757L287.341 575.742L301.046 589.197L314.751 575.742L315.335 575.169H316.152H316.996H317.813L318.397 575.742L332.102 589.197L345.807 575.742L346.391 575.169H347.208H349.054H349.871L350.455 575.742L364.16 589.197L377.865 575.742L378.449 575.169H379.266H381.112H381.929L382.513 575.742L396.218 589.197L409.923 575.742L410.507 575.169H411.324H413.17H413.987L414.571 575.742L428.276 589.197L441.981 575.742L442.565 575.169H443.382H444.226H445.043L445.627 575.742L459.332 589.197L473.037 575.742L473.621 575.169H474.438H476.284H477.101L477.685 575.742L491.39 589.197L505.095 575.742L505.679 575.169H506.496H507.34H508.158L508.741 575.742L522.446 589.197Z" fill="black"/>
</svg>
